<svg xmlns="http://www.w3.org/2000/svg" width="10" height="11" viewBox="0 0 10 11">
  <g>
    <path fill="rgb(255,255,255)" fill-rule="evenodd" d="M9.95181274 7.87310791l-.42716598-3.40704346C9.26441956 3.25030518 8.5279274 2.75 7.82580566 2.75H2.18428421c-.71194077 0-1.4729805.465271-1.69392776 1.71606445l-.4320755 3.40704346C-.29523469 10.37463379 1.00589751 11 2.70473861 11h4.60552597c1.69392776 0 2.95578384-.90557861 2.64154815-3.12689209zM3.38721848 5.58172607c-.27116776 0-.4909935-.22399902-.4909935-.50030517s.21982574-.50030518.4909935-.50030518c.27116775 0 .4909935.22399903.4909935.50030518 0 .27630615-.21982575.50030517-.4909935.50030517zm2.72501754-.50030517c0 .27630615.21982575.50030517.4909935.50030517.27116776 0 .4909935-.22399902.4909935-.50030517s-.21982574-.50030518-.4909935-.50030518c-.27116775 0-.4909935.22399903-.4909935.50030518z"/>
    <path fill="rgb(255,255,255)" fill-rule="evenodd" d="M7.84221181 2.62587817c.00179274.0426609-.00672417.08514157-.02488507.12412183h-.82120737c-.01590321-.03963105-.0243295-.08165975-.02488508-.12412183 0-1.05462455-.8913141-1.90956667-1.99080576-1.90956667s-1.99080575.85494212-1.99080575 1.90956667c.0075336.04105842.0075336.0830634 0 .12412183h-.84111544c-.0075336-.04105842-.0075336-.08306341 0-.12412183C2.2124128 1.15825025 3.47142561 0 5.0028251 0c1.53139948 0 2.7904123 1.15825025 2.85431776 2.62587817H7.8422118z"/>
  </g>
</svg>
