<svg xmlns="http://www.w3.org/2000/svg" xmlns:xlink="http://www.w3.org/1999/xlink" width="27" height="27" viewBox="0 0 27 27">
  <defs>
    <path id="path-1" fill-rule="evenodd" d="M2.63043213 0H24.3695526c.90046692 0 1.63043213.72998047 1.63043213 1.63043213v21.73913574c0 .90045166-.7299652 1.63043213-1.63043213 1.63043213H2.63043213C1.7299652 25 1 24.27001953 1 23.36956787V1.63043213C1 .72998047 1.72996521 0 2.63043213 0zm0 23.36956787H24.3695526V1.63043213H2.63043213v3.8043518h1.63043213V4.8912964c0-.90045166.7299652-1.63043213 1.63043213-1.63043213h15.21739196c.90046692 0 1.63043213.72998047 1.63043213 1.63043213v15.2173767c0 .90048218-.7299652 1.63043213-1.63043213 1.63043213H5.8912964c-.90046692 0-1.63043213-.72994995-1.63043213-1.63043212v-.54345704H2.63043213v3.80435181zm4.89129639-5.43478393c0 .90045166-.72996521 1.63043212-1.63043213 1.63043212v.54345704h15.21739196V4.89129639H5.8912964v.54348755c.90046692 0 1.63043213.72994995 1.63043213 1.63043212V8.6956482c0 .90045166-.72996521 1.63043213-1.63043213 1.63043213v4.34780884c.90046692 0 1.63043213.72998047 1.63043213 1.63043213v1.63046265zM5.89129639 7.06518554v1.63043214H2.63043213V7.06518555h3.26086426zm-1.63043213 3.26089478H2.63043213v4.34783936h1.63043213v-4.34783936zm1.63043213 5.97824097v1.63043213H2.63043213v-1.63043213h3.26086426z"/>
    <filter id="filter-2" width="200%" height="200%" x="-50%" y="-50%" color-interpolation-filters="sRGB" filterUnits="userSpaceOnUse">
      <feOffset dx="0" dy="1" in="SourceAlpha" result="shadow-1-feOffset-shadow"/>
      <feGaussianBlur in="shadow-1-feOffset-shadow" result="shadow-1-feGaussianBlur-shadow" stdDeviation=".602"/>
      <feColorMatrix in="shadow-1-feGaussianBlur-shadow" result="shadow-1-feColorMatrix-shadow" type="matrix" values="0 0 0 0 0  0 0 0 0 0  0 0 0 0 0  0 0 0 0.5 0"/>
    </filter>
    <path id="path-3" fill-rule="evenodd" d="M18.35868835 11.95651245h.57609559c.45022583 0 .81521606.36499024.81521606.81521607 0 .45022583-.36499023.81521606-.81521606.81521606h-.66848755c-.1435547.62734985-.40950013 1.22018433-.78260804 1.74456787l.35870362.35870361c.21809387.20321656.30787658.50927735.2341156.79812623-.07377625.28884887-.2993164.51437377-.58815003.58813476-.28884887.0737915-.59490966-.01599121-.79814148-.23410034l-.3587036-.35870361c-.6754303.4822998-1.46313477.78353881-2.28804017.875v.3043518c0 .45022583-.36497498.81521607-.81521606.81521607-.45022583 0-.81521607-.36499024-.81521607-.81521607v-.39672851c-.6273346-.1435547-1.22018433-.40951538-1.74456787-.7826233l-.35868835.35870362c-.20323182.21810913-.50930787.30789184-.79814148.23410034-.28883362-.07376099-.51438904-.29928589-.58815003-.58813476-.07376098-.28884888.01602173-.59490967.2341156-.79812623l.35868836-.3587036c-.37309265-.52438355-.63903809-1.11721803-.78260804-1.74456788h-.66847229c-.45022583 0-.81521606-.36499023-.81521606-.81521606s.36499023-.81521607.81521606-.81521607h.57608033c.09146118-.82489014.39271545-1.61260986.875-2.28805542l-.35868836-.3586731c-.21809387-.20324706-.30787658-.50930786-.2341156-.79815673.07376099-.28884888.2993164-.51437378.58815003-.58813477.28883361-.07376098.59490966.01599121.79814148.23410034l.35868835.35870362c.52438354-.37310791 1.11723328-.63903809 1.74456787-.7826233v-.39672851c0-.45022583.36499024-.81521606.81521607-.81521606.45024108 0 .81521606.36499023.81521606.81521606v.3043518c.8249054.09146119 1.61260986.3927002 2.28804016.875l.35870361-.3587036c.20323182-.21810914.5092926-.30786133.79814148-.23410035.28883362.07376099.51437378.29928589.58815003.58813477.07376098.28884887-.01602173.59490967-.2341156.79815674l-.35870362.3586731c.4822998.67544555.78353882 1.46316527.875 2.28805541zm-8.1195526.54345703c0 1.80093384 1.45994567 3.26086426 3.26086425 3.26086426 1.80093384 0 3.26087952-1.45993042 3.26087952-3.26086426S15.30093384 9.23910522 13.5 9.23910522c-1.80091858 0-3.26086426 1.45993042-3.26086426 3.26086426z"/>
    <filter id="filter-4" width="200%" height="200%" x="-50%" y="-50%" color-interpolation-filters="sRGB" filterUnits="userSpaceOnUse">
      <feOffset dx="0" dy="1" in="SourceAlpha" result="shadow-1-feOffset-shadow"/>
      <feGaussianBlur in="shadow-1-feOffset-shadow" result="shadow-1-feGaussianBlur-shadow" stdDeviation=".602"/>
      <feColorMatrix in="shadow-1-feGaussianBlur-shadow" result="shadow-1-feColorMatrix-shadow" type="matrix" values="0 0 0 0 0  0 0 0 0 0  0 0 0 0 0  0 0 0 0.5 0"/>
    </filter>
  </defs>
  <g>
    <g>
      <use fill="black" stroke="black" stroke-opacity="0" stroke-width="0" filter="url(#filter-2)" xlink:href="#path-1"/>
      <use fill="rgb(255,244,244)" xlink:href="#path-1"/>
    </g>
    <g>
      <use fill="black" stroke="black" stroke-opacity="0" stroke-width="0" filter="url(#filter-4)" xlink:href="#path-3"/>
      <use fill="rgb(255,244,244)" xlink:href="#path-3"/>
    </g>
  </g>
</svg>
