<svg xmlns="http://www.w3.org/2000/svg" width="7.47" height="7" viewBox="0 0 7.47 7">
  <g>
    <path fill="rgb(0,0,0)" fill-rule="evenodd" d="M3.3113064 5.93326794c.14096487 0 .25523948-.11939806.25523948-.26668304V4.422064c0-.14728498-.1142746-.26668305-.25523947-.26668305-.14096487 0-.25523948.11939807-.25523948.26668305V5.6665849c0 .14728498.1142746.26668304.25523948.26668304z"/>
    <path fill="rgb(0,0,0)" fill-rule="evenodd" d="M4.3322643 5.93326794c.14096487 0 .25523947-.11939806.25523947-.26668304V4.422064c0-.14728498-.1142746-.26668305-.25523947-.26668305-.14096487 0-.25523947.11939807-.25523947.26668305V5.6665849c0 .14728498.1142746.26668304.25523947.26668304z"/>
    <path fill="rgb(0,0,0)" fill-rule="evenodd" d="M5.3532222 5.93326794c.14096486 0 .25523947-.11939806.25523947-.26668304V4.422064c0-.14728498-.1142746-.26668305-.25523948-.26668305-.14096487 0-.25523947.11939807-.25523947.26668305V5.6665849c0 .14728498.1142746.26668304.25523947.26668304z"/>
    <path fill="rgb(0,0,0)" fill-rule="evenodd" d="M2.29034851 5.93326794c.14096487 0 .25523948-.11939806.25523948-.26668304V4.422064c0-.14728498-.1142746-.26668305-.25523948-.26668305-.14096487 0-.25523947.11939807-.25523947.26668305V5.6665849c0 .14728498.1142746.26668304.25523947.26668304z"/>
    <path fill="rgb(0,0,0)" fill-rule="evenodd" d="M6.969738 1.8441286h-.32330322v-.0106678L4.96015168.07157517c-.10056687-.09791183-.25728226-.0950222-.35448075.00653458-.0972023.10155773-.09996414.26530075-.0062561.37037754l1.33575439 1.39564133H1.54505157L2.88080215.44848728c.09371186-.10507679.0909462-.2688198-.00625228-.37037754-.0972023-.10155678-.2539177-.10444641-.35448456-.00653458L.8337822 1.83346081v.0106678H.51047897C.22854996 1.8441286 0 2.08292484 0 2.37749386v.71115494c0 .29457092.22854996.5333662.51047897.5333662-.00286483.03252602-.00286483.06525803 0 .09778404l.51047898 2.8446188c.04507827.25256157.25608062.4356556.5019722.43558311H5.9470787c.24589158.00007248.45689011-.18302154.5019722-.43558311l.51047898-2.8446188c.00286483-.03252601.00286483-.06525802 0-.09778404.28192901 0 .51047897-.23879528.51047897-.5333662v-.71115494c.0000534-.29045296-.22233582-.52755642-.50027084-.53336525zM.50367356 3.0886488h6.46606827v-.71115494H.50367355v.71115494zm5.44511032 3.377985H1.5246315L1.01415253 3.622015h5.44511032l-.51047898 2.8446188z"/>
  </g>
</svg>
