<svg xmlns="http://www.w3.org/2000/svg" width="49.004" height="60" viewBox="0 0 49.004 60">
  <g opacity=".4">
    <path fill="rgb(250,153,23)" fill-rule="evenodd" d="M12.46884155 0h36.53527832v47.72723389c-.0281372 2.81481933-1.78018188 5.322937-4.41036987 6.31362915l-4.91403198 5.90454101-.99368286-.83181762c-1.00375367.57415771-2.13830567.87945556-3.29415894.88638305H6.80612182C3.0472107 59.99996948 0 56.94735718 0 53.18179321V12.27270508c.00390625-.884552.17959595-1.75991821.51727295-2.57727051L0 9.54544067 1.56539917 7.9772644c.28890991-.35440063.61270142-.67874145.9664917-.96817016l4.81872559-4.82727051.29946899-.30001831L9.52856445 0l.4628296.46362305C10.78326415.16329956 11.62213134.00628662 12.46884154 0zm32.45159912 47.72723389V4.09091187l-32.45159912-.02728272c-1.01412964.00460815-1.95892334.51623535-2.51828003 1.36364746h32.24743653V50.4272461h.09527588l1.06176757-1.28182983.63977051.53182983c.57418823-.48635864.9114685-1.19689941.92562866-1.9500122zM4.0836792 53.1817932c0 1.5062561 1.21887207 2.72729492 2.72244263 2.72729492h28.5857544c1.50357055 0 2.72244262-1.22103881 2.72244262-2.72729492V9.5454712h-5.44488526v20.61816406l-7.05117797-5.64544677-6.5610962 6.06817627V9.54547119H6.80612182c-1.50357055 0-2.72244262 1.22103882-2.72244262 2.7272644v40.90905762zM23.14083862 9.5454712h5.44491577v12.10906983l-3.15805053-2.53634644-2.28686524 2.11361694V9.5454712z"/>
  </g>
</svg>
