<svg xmlns="http://www.w3.org/2000/svg" width="10.096" height="7.277" viewBox="0 0 10.096 7.277">
  <path fill="rgb(0,0,0)" fill-rule="evenodd" d="M0 1.81924438h10.09552002V.80854798C10.09552002.3619995 9.73394775 0 9.28787232 0H.8076477C.36160278 0 0 .36199951 0 .80854797v1.01069641zm10.09552002 4.64918519V3.43635559H0v3.03207398c0 .44654846.36160278.80856323.8076477.80856323h8.48022461c.44607544 0 .80764771-.36201477.80764771-.80856323zM1.81716919 4.85131836c-.22302246 0-.4038086.18099976-.4038086.40428162 0 .2232666.18078614.40426635.4038086.40426635H3.4324646c.22302246 0 .4038086-.18099975.4038086-.40426635 0-.22328186-.18078614-.40428162-.4038086-.40428162H1.81716919zm2.82678223.40428162c0-.22328186.18078613-.40428162.40380859-.40428162h3.23059082c.22302246 0 .4038086.18099976.4038086.40428162 0 .2232666-.18078614.40426635-.4038086.40426635H5.04776001c-.22302246 0-.4038086-.18099975-.4038086-.40426635z"/>
</svg>
