<svg xmlns="http://www.w3.org/2000/svg" xmlns:xlink="http://www.w3.org/1999/xlink" width="30.409" height="27" viewBox="0 0 30.409 27">
  <defs>
    <path id="path-1" fill-rule="evenodd" d="M18.61364746 19.56524658q-1.24151611 1.58718872-.56817627 2.74649048c.37765503.65020752 1.24197388 1.00299072 2.59295654 1.05828857.45626831.01867676.8161316.3779297.8161316.81478882 0 .45022583-.38156128.81521607-.8522644.81521607H9.80682372c-.47070312 0-.8522644-.36499024-.8522644-.81521607 0-.4295349.3616333-.77896118.81066894-.78329467 1.3154602-.0126648 2.1816101-.37780762 2.5984192-1.09545899q.74569701-1.28393555-.56817628-2.7408142H3.36743164C2.05993652 19.56524658 1 18.59194945 1 17.3913269V2.17391968C1 .97329712 2.05993652 0 3.36743164 0h23.67425537c1.30749512 0 2.36743164.97329712 2.36743164 2.17391968V17.3913269c0 1.20062256-1.05993652 2.17391968-2.36743164 2.17391968h-8.42803955zM3.36740112 3.26086426v11.95654297c0 .60031128.50875855 1.08694458 1.13635254 1.08694458h21.4015503c.62759399 0 1.13635253-.4866333 1.13635253-1.08694458V3.26086426c0-.60031128-.50875854-1.08694458-1.13635253-1.08694458H4.50375366c-.627594 0-1.13635254.4866333-1.13635254 1.08694458zM13.5 17.93481446c0-.3001709.25439453-.54348756.56817627-.54348756h2.2727356c.31381225 0 .56817626.24331665.56817626.54348755 0 .30014038-.254364.54345703-.56817626.54345703h-2.2727356c-.31378174 0-.56817627-.24331665-.56817627-.54345703z"/>
    <filter id="filter-2" width="200%" height="200%" x="-50%" y="-50%" color-interpolation-filters="sRGB" filterUnits="userSpaceOnUse">
      <feOffset dx="0" dy="1" in="SourceAlpha" result="shadow-1-feOffset-shadow"/>
      <feGaussianBlur in="shadow-1-feOffset-shadow" result="shadow-1-feGaussianBlur-shadow" stdDeviation=".602"/>
      <feColorMatrix in="shadow-1-feGaussianBlur-shadow" result="shadow-1-feColorMatrix-shadow" type="matrix" values="0 0 0 0 0  0 0 0 0 0  0 0 0 0 0  0 0 0 0.5 0"/>
    </filter>
  </defs>
  <g>
    <use fill="black" stroke="black" stroke-opacity="0" stroke-width="0" filter="url(#filter-2)" xlink:href="#path-1"/>
    <use fill="rgb(255,248,248)" xlink:href="#path-1"/>
  </g>
</svg>
