<svg xmlns="http://www.w3.org/2000/svg" width="24" height="19.2" viewBox="0 0 24 19.2">
  <defs>
    <rect id="rect-1" width="24" height="19.2" x="0" y="0"/>
  </defs>
  <path fill="rgb(250,153,23)" fill-rule="evenodd" d="M24 2.40000153C24 1.0745163 22.92547607 0 21.6000061 0H2.3999939C1.07998657 0 0 1.08000183 0 2.40000153L12 12l12-9.59999847zm0 2.40000152l-6.14401245 4.91999817L24 14.40000152V4.80000306zm0 12l-7.64401245-5.88000107L12 14.40000153l-4.35598755-3.47999955L0 16.80000305c0 1.3254776 1.07452393 2.39999771 2.3999939 2.39999771h19.2000122c1.32546997 0 2.3999939-1.0745201 2.3999939-2.3999977zM0 14.40000153l6.14401245-4.6800003L0 4.80000304v9.59999848z"/>
</svg>
