<svg xmlns="http://www.w3.org/2000/svg" width="60" height="60" viewBox="0 0 60 60">
  <g opacity=".4">
    <path fill="rgb(250,153,23)" fill-rule="evenodd" d="M14.41397095 56.54229736C17.1206665 58.1230774 20.0901947 59.30279541 23.24110413 60l1.9576416-2.168396c2.8403778-3.14614868 7.46525573-3.15447998 10.31317138 0l1.80778504 2.00238038c3.21154785-.7913208 6.224823-2.08642579 8.9512024-3.7966919l-.13316346-2.60705566c-.21621704-4.23309327 3.04818725-7.50927735 7.29251099-7.29251099l2.60705566.13317871c1.71025085-2.7263794 3.00535583-5.73965454 3.7966919-8.9512024L57.831604 35.51190187c-3.14613342-2.84036255-3.15447998-7.465271 0-10.3131714L60 23.24108887c-.69718933-3.1508789-1.87690735-6.12042236-3.45767212-8.82711791l-3.1120758.15893554c-4.23310853.21621705-7.5092926-3.04815673-7.292511-7.29251098l.17572022-3.44018555C43.75463867 2.22924805 40.94215393.984375 37.94947815.17907715L35.5119171 2.87905884c-2.8403778 3.14611816-7.465271 3.15447998-10.31317138 0L22.59950256 0c-2.92921447.7145996-5.69430542 1.84811401-8.22817993 3.33340454l.20159912 3.94699097c.21621704 4.23312378-3.04818725 7.50930786-7.29251098 7.29251098l-3.9469986-.20159912C1.84810638 16.9052124.71461487 19.6702881 0 22.5994873l2.8790512 2.59924317c3.14614106 2.84039307 3.15447999 7.465271 0 10.31317139L.17907716 37.94946289c.80529022 2.99267578 2.0501709 5.80517578 3.66113281 8.36398315l3.4402008-.17572021c4.23310853-.21621704 7.5092926 3.04818726 7.292511 7.29251099l-.15895081 3.11206054zm28.34553528-26.61691284c0 7.08810425-5.74603272 12.83413696-12.8341217 12.83413696-7.088089 0-12.83412171-5.74603271-12.83412171-12.83413696 0-7.08807373 5.74603271-12.83410644 12.8341217-12.83410644 7.088089 0 12.8341217 5.74603271 12.8341217 12.83410644z"/>
  </g>
</svg>
