<svg xmlns="http://www.w3.org/2000/svg" width="10.065" height="10.007" viewBox="0 0 10.065 10.007">
  <path fill="rgb(0,0,0)" fill-rule="evenodd" d="M2.8717041 1.17349243L2.78396606.97621155c-.09069824-.2039795.00091553-.44294739.2046814-.5337677.20373535-.09080506.44244385.00091552.5331421.20489502l.0873413.19636535c.3359375-.11460876.68231201-.18751526 1.03131103-.21914672V.40428162C4.6404419.18099976 4.82122803 0 5.0442505 0c.22305298 0 .40383911.18099976.40383911.40428162v.22052002c.37298584.03399658.7420044.11495971 1.09750366.24240112l.09289551-.19944763c.09423828-.2023468.33450317-.28990174.53665161-.19554138.20211792.09436035.2895813.3348999.1953125.53726196l-.0925293.19866943c.2763672.16099548.53857422.35403443.78103638.57884216l.16403198-.14787292c.16574097-.1493988.42108155-.13600159.5703125.02992249.14923096.16593933.13586426.42155456-.0298767.57095336l-.1635437.14743042c.2145996.2861786.38989257.5914917.52627563.90890503l.20932007-.06809997c.21212768-.06898499.4399414.0472107.5088501.25956726.06890869.2123413-.04714966.44041443-.25927735.50941467l-.2090149.06799317c.07858277.34666442.11505128.70043945.10980225 1.05329895l.21783448.02293396c.22180175.02333068.38269043.22225952.359375.44432067-.02331543.2220459-.22201538.38313294-.44381714.35980225l-.21832276-.02297974c-.06756591.34082032-.17507934.6748352-.32220459.99441529l.19024659.10995483c.19314575.1116333.25930786.35888672.14779663.5522461-.11151123.19337463-.35849.25961303-.55163575.14797973l-.19015502-.10990906c-.18737793.26545716-.4069519.51434327-.65838624.74099732-.01821899.01641846-.03652954.03266907-.05493164.04872131l.12640381.1742096c.13110352.18063354.09109497.43345642-.08932495.56469726-.18045044.13122559-.4329834.09118653-.5640564-.08944702L7.30737306 8.881073c-.29904175.17764282-.6137085.31680298-.93719483.41783142l.04672241.22001648c.0463562.21839905-.0928955.43307495-.31103515.47949219-.21817017.04641723-.43258667-.09298706-.47897339-.31138611l-.04641724-.21865845c-.35165405.04249573-.70697021.04283142-1.05789184.00141907l-.04614258.21728515c-.04638672.21839905-.26080322.3578186-.47897339.31138611-.21813965-.04641723-.35739136-.26109314-.31103516-.47949219l.04589844-.21612548c-.354187-.10922242-.69689941-.2635193-1.01895141-.46240235l-.13586426.1804657c-.13421631.17832947-.38739014.21394348-.56552124.07957459-.17810059-.1343689-.21368408-.3878479-.07946778-.56616211l.13510132-.1795044c-.11242675-.10185241-.22076416-.21043396-.32443237-.32569885-.11715698-.13024902-.2251892-.26553345-.32415771-.40505981l-.19464112.11250305c-.19314575.1116333-.44012451.04537964-.55163574-.14797974-.11151123-.19335937-.0453186-.4406128.14782715-.5522461l.19281006-.11145019c-.14453125-.31173706-.25073243-.6361847-.31896973-.96647644l-.24835205.0261383C.22427368 6.00787355.0255432 5.8467865.0022583 5.6247406c-.02331543-.22206116.13757324-.42098999.359375-.44432068l.2416687-.0254364c-.00793457-.355484.02648926-.71131897.10284424-1.05931091L.4831543 4.02313232C.2710266 3.95413208.15496826 3.72605896.22387695 3.51371765c.0689087-.21235657.29672242-.3285675.5088501-.25956726l.21765137.07080078c.13516235-.32144165.30941772-.62968445.52246094-.91723633l-.165802-.14944458c-.16574097-.1493988-.17910767-.4050293-.02987672-.57095337.14923096-.16592407.40457154-.17932128.5703125-.02992248l.16342164.1473236c.0201416-.01882934.04049682-.03752135.06106567-.05606078.24990845-.2252655.51834106-.41690064.79974365-.5751648zm4.60446167 6.58390808c-1.4916687 1.3446045-3.78967285 1.22402954-5.13278198-.26930237-1.34307861-1.4933319-1.22265625-3.7939453.26901245-5.1385498 1.49163818-1.3446045 3.78967285-1.2240448 5.13275147.26930237 1.34310913 1.4933319 1.22265625 3.79394531-.26898194 5.1385498zm-.61862182-4.87538147l-1.91525269 1.7264557-2.44036865-.79382325c.15463257-.31834412.37194824-.61277771.6508789-.8642273 1.05963135-.95518493 2.64245606-.95973205 3.70474244-.06840515zm.07818603 4.27450562c1.0569458-.95274353 1.22872925-2.52258301.4611206-3.67262268L5.46798707 5.22262573l.52987671 2.49568177c.33657837-.12057496.65576172-.30747986.93786621-.56178284zm-1.72946167.72233581c-.82635498.04696656-1.66577148-.26809692-2.26269531-.9317932-.59979248-.66690064-.8243103-1.54080201-.6871643-2.36210633l2.41744994.7863617.53240967 2.50753783z"/>
</svg>
