<svg xmlns="http://www.w3.org/2000/svg" width="9.288" height="8.692" viewBox="0 0 9.288 8.692">
  <path fill="rgb(0,0,0)" fill-rule="evenodd" d="M4.27687007.71319055c.13851917.13350616.2618505.28222212.3670734.44304163.1052229-.1608195.22855422-.30953547.3670734-.44304163l.19168496-.16734078C5.63333205.20580664 6.1765203 0 6.76497533 0H6.787302C8.1693217.01334114 9.28788693 1.13177342 9.28788693 2.51258147c0 .82270366-.36169175 1.99005346-1.06721393 2.95061558-1.3440644 1.82995977-3.57672954 3.22875814-3.57672954 3.22875814S2.41127834 7.29315682 1.06721393 5.46319705C.36169175 4.50263493 0 3.33528513 0 2.51258147 0 1.13177342 1.11856523.01334114 2.50058494 0h.02232665c.58845505 0 1.13164329.20580664 1.5622735.54584977l.19168498.16734078z"/>
</svg>
