<svg xmlns="http://www.w3.org/2000/svg" width="24" height="22.857" viewBox="0 0 24 22.857">
  <path fill="rgb(250,153,23)" fill-rule="evenodd" d="M0 9.52380371c0 .52600098.4084301.95239258.91225433.95239258h1.7746582v10.47619629c0 1.05194092.8168602 1.90472412 1.82450867 1.90472412h14.59605408c1.00764847 0 1.82450867-.8527832 1.82450867-1.90472412v-10.4761963h2.15568924c.29559707 0 .57287216-.14953612.74394989-.4012451.29158401-.42889405.19488525-1.0234375-.21598435-1.32781983l-2.68365478-1.98834229V3.80950928c0-.52600098-.408432-.95239258-.91225434-.95239258h-.91225433c-.50382233 0-.91225433.4263916-.91225433.95239258v.92163086L12.34616089.39764404c-.32046509-.23742675-.75054932-.23394775-1.06743622.008667L.37277985 8.75579834C.1384449 8.93518066 0 9.22039794 0 9.52380371zM14.54620743 20v-7.61901855h3.64901352V20h-3.64901352z"/>
</svg>
