<svg xmlns="http://www.w3.org/2000/svg" width="10.624" height="9.608" viewBox="0 0 10.624 9.608">
  <path fill="rgb(0,0,0)" fill-rule="evenodd" d="M9.2658081 8.79988098v-4.447052h.95425416c.13085937 0 .25360107-.0634613.32931518-.17030335.12908936-.18208313.0862732-.43443298-.09561157-.56365966l-1.18795776-.8440094V1.52290344c0-.22328186-.18078614-.40428161-.4038086-.40428161h-.4038086c-.22302245 0-.4038391.18099975-.4038391.40428161v.39123535L5.46517944.07458496c-.1418457-.1007843-.33221435-.0993042-.47250366.00367737l-4.82766724 3.544281C.0612793 3.69869995 0 3.81977844 0 3.94856263c0 .2232666.18078613.40426635.4038086.40426635h.78558349v4.447052c0 .44654846.36160278.80854798.8076477.80854798h6.46115113c.44604492 0 .80761719-.36199952.80761719-.80854798zm-4.26538085-7.7246399L1.99703979 3.54428102v4.85131836c0 .22328186.18078614.40428161.4038086.40428161H8.0543518c.22302246 0 .4038391-.18099975.4038391-.40428161V3.544281l-2.98526-2.47271729c-.1418457-.1007843-.33224487-.0993042-.47250366.00367737zM6.4390564 5.16139222h1.6152954v3.23422241H6.4390564v-3.2342224z"/>
</svg>
