<svg xmlns="http://www.w3.org/2000/svg" width="9.302" height="9.3" viewBox="0 0 9.302 9.3">
  <defs>
    <rect id="rect-1" width="9.302" height="9.3" x="0" y="0"/>
  </defs>
  <path fill="rgb(250,153,23)" fill-rule="evenodd" d="M4.91179994.13779697l4.18577575 4.11680777c.14649106.14407683.14842606.37960625.00432206.52606964-.14410305.1464634-.37967682.1483984-.52616692.00432158l-.51422071-.50574827v3.47074937c0 .1712079-.1388178.30999947-.31005764.30999947H1.55030265c-.17124009 0-.31005752-.13879156-.31005752-.30999947V4.2792477l-.51422107.50574827c-.1464906.14407682-.38206366.14214182-.52616726-.00432158-.14410357-.1464634-.14216855-.38199281.00432204-.52606964L4.38995507.13779697c.1447916-.14240606.37705326-.14240606.52184487 0zm2.5295949 3.5315531v3.77064657H6.20116475V5.26999657c0-.1712079-.1388173-.30999994-.31005716-.30999994H4.0307627c-.17124033 0-.31005764.13879203-.31005764.30999994v2.17000007h-1.860345V3.66935007L4.6508775.92481141l2.79051733 2.74453866zm-1.8603449 1.91064644v1.86000013H4.34081988V5.57999651h1.24023008z"/>
</svg>
