<svg xmlns="http://www.w3.org/2000/svg" width="9.288" height="9.298" viewBox="0 0 9.288 9.298">
  <path fill="rgb(0,0,0)" fill-rule="evenodd" d="M.80764008 0H8.4802475c.44604492 0 .80764007.36199951.80764007.80856323v7.6812439c0 .44656372-.36159515.80856323-.80764007.80856323H.80764008C.36159515 9.29837036 0 8.93637085 0 8.48980713V.80856323C0 .36199951.36159515 0 .80764008 0zm1.41338348 1.81924438c.22286987 0 .40381622.18115235.40381622.40426636 0 .22314453-.18094635.40429688-.40381622.40429688-.2228775 0-.40382385-.18115235-.40382385-.40429688 0-.22311401.18094635-.40426636.40382385-.40426636zm1.41336822.40426636c0-.2232666.16436005-.40426636.36711121-.40426636h3.30399323c.20274353 0 .3671112.18099976.3671112.40426636 0 .22329712-.16436767.40429688-.3671112.40429688H4.00150299c-.20275116 0-.3671112-.18099976-.3671112-.40429688zm-1.009552 2.42565918c0-.22311401-.18094635-.40426636-.40381622-.40426636-.2228775 0-.40382385.18115235-.40382385.40426636 0 .22314453.18094635.40429688.40382385.40429688.22286987 0 .40381622-.18115235.40381622-.40429688zM4.001503 4.24490356c-.20275116 0-.3671112.18099976-.3671112.40426636 0 .22329712.16436004.40429688.3671112.40429688h3.30399323c.20274353 0 .3671112-.18099976.3671112-.40429688 0-.2232666-.16436767-.40426636-.3671112-.40426636H4.00150299zM2.22102356 6.67056274c.22286987 0 .40381622.18115235.40381622.40426636 0 .22314453-.18094635.40429688-.40381622.40429688-.2228775 0-.40382385-.18115235-.40382385-.40429688 0-.22311401.18094635-.40426636.40382385-.40426636zm1.41336822.40426636c0-.2232666.16436005-.40426636.36711121-.40426636h3.30399323c.20274353 0 .3671112.18099976.3671112.40426636 0 .22329712-.16436767.40429688-.3671112.40429688H4.00150299c-.20275116 0-.3671112-.18099976-.3671112-.40429688z"/>
</svg>
