<svg xmlns="http://www.w3.org/2000/svg" width="8.884" height="8.894" viewBox="0 0 8.884 8.894">
  <g>
    <path fill="rgb(0,0,0)" fill-rule="evenodd" d="M3.23057556 0H.80764771C.36158752 0 0 .36199951 0 .80854797v2.42567444c0 .44654846.36158752.80854798.8076477.80854798h2.42292786c.44604492 0 .80763245-.36199952.80763245-.80854798V.80854797C4.038208.36199951 3.67662048 0 3.23057556 0zM.80764771 1.21282959c0-.22328186.18080139-.40428162.40382385-.40428162H2.8267517c.22302246 0 .40382385.18099976.40382385.40428162v1.61709595c0 .22328186-.18080139.40428161-.40382385.40428161H1.21147156c-.22302246 0-.40382385-.18099975-.40382385-.40428161V1.21282959z"/>
    <path fill="rgb(0,0,0)" fill-rule="evenodd" d="M3.23057556 4.85131836H.80764771C.36158752 4.85131836 0 5.21331787 0 5.65986633v2.42567444c0 .44654846.36158752.80854798.8076477.80854798h2.42292786c.44604492 0 .80763245-.36199952.80763245-.80854798V5.65986633c0-.44654846-.36158753-.80854797-.80763245-.80854797zM.80764771 6.0641632c0-.22328186.18080139-.40428162.40382385-.40428162H2.8267517c.22302246 0 .40382385.18099976.40382385.40428162v1.61709595c0 .22328186-.18080139.40428161-.40382385.40428161H1.21147156c-.22302246 0-.40382385-.18099975-.40382385-.40428161V6.0641632z"/>
    <path fill="rgb(0,0,0)" fill-rule="evenodd" d="M8.07643127 0H5.65350342c-.44606018 0-.8076477.36199951-.8076477.80854797v2.42567444c0 .44654846.36158752.80854798.8076477.80854798h2.42292785c.44604493 0 .80763245-.36199952.80763245-.80854798V.80854797C8.88406372.36199951 8.5224762 0 8.07643127 0zM5.65350342 1.21282959c0-.22328186.18080139-.40428162.40382385-.40428162h1.61528015c.22302246 0 .40382385.18099976.40382385.40428162v1.61709595c0 .22328186-.18080139.40428161-.40382385.40428161H6.05732727c-.22302246 0-.40382385-.18099975-.40382385-.40428161V1.21282959z"/>
    <path fill="rgb(0,0,0)" fill-rule="evenodd" d="M8.07643127 4.85131836H5.65350342c-.44606018 0-.8076477.36199951-.8076477.80854797v2.42567444c0 .44654846.36158752.80854798.8076477.80854798h2.42292785c.44604493 0 .80763245-.36199952.80763245-.80854798V5.65986633c0-.44654846-.36158752-.80854797-.80763245-.80854797zM5.65350342 6.0641632c0-.22328186.18080139-.40428162.40382385-.40428162h1.61528015c.22302246 0 .40382385.18099976.40382385.40428162v1.61709595c0 .22328186-.18080139.40428161-.40382385.40428161H6.05732727c-.22302246 0-.40382385-.18099975-.40382385-.40428161V6.0641632z"/>
  </g>
</svg>
