<svg xmlns="http://www.w3.org/2000/svg" width="6.853" height="6.847" viewBox="0 0 6.853 6.847">
  <path fill="rgb(0,0,0)" fill-rule="evenodd" d="M7.2e-7 3.4236908C7.2e-7 1.53284073 1.53408337 0 3.42647028 0c1.89238644 0 3.42646885 1.53284073 3.42646885 3.4236908 0 1.89085388-1.53408241 3.4236946-3.42646885 3.4236946-1.89238691 0-3.42646956-1.53284072-3.42646956-3.4236946zM2.54807997.59991455C1.31044102.98431015.46715188 2.12868881.46724653 3.4236908c-.00045013.69550323.245646 1.36868667.69463873 1.9001503.32890797-.55467988.84115315-.97735215 1.44846201-1.195179-.27889109-.28001403-.43373823-.6600914-.42986631-1.05512237 0-.7781105.55913782-1.40060043 1.24598884-1.40060043.6868515 0 1.24598933.62248993 1.24598933 1.40060043.00473117.38141632-.13810635.74993134-.39871693 1.02866745.60302925.21566391 1.12103557.6187172 1.47805405 1.1500473.80160045-1.0175972.8472147-2.43798828.11255264-3.50484084C5.12968683.68055725 3.78571939.21551895 2.54807997.59991455zm.95626402 3.3684578c-.08532477.00035095-.17057658.00502395-.25542784.01400375-.37903881-.13734055-.62328243-.50657272-.60118914-.90883255 0-.51511002.34887648-.9337349.7787428-.9337349.4298663 0 .77874326.41862488.77874326.9337349.01919127.39094162-.21052551.7514534-.57315493.89949798-.04205227-.0015564-.08410453-.00466919-.12771415-.00466919zm-.28346253.49487686c-.73541498.10250091-1.37471819.55661773-1.71323442 1.21696472H1.5029745c1.13547659.97127151 2.81871223.9398384 3.91707754-.073143-.37275028-.63110352-1.01446295-1.05665208-1.74126959-1.1547165-.15003776.03676224-.30628204.04047775-.457901.01089478z"/>
</svg>
