<svg xmlns="http://www.w3.org/2000/svg" width="11.307" height="11.32" viewBox="0 0 11.307 11.32">
  <path fill="rgb(0,0,0)" fill-rule="evenodd" d="M0 5.6598816c0 3.12585448 2.53115845 5.65988158 5.65350342 5.65988158s5.65350342-2.5340271 5.65350342-5.65988159C11.30700684 2.5340271 8.77584839 0 5.65350342 0S0 2.5340271 0 5.6598816zm8.68621826 3.54138183c.06604004.00961303.11990357.02685547.16775513.04736328-.84979248.76010132-1.97122193 1.22213745-3.20043945 1.22213745-1.22753907 0-2.3475647-.46078491-3.19692994-1.21899414.0295105-.01968384.06488037-.03674316.10614014-.0505066.03915405-.01138305.07788086-.02316283.11532593-.0345459 1.10205078-.33840941 1.36553955-.63128661 1.46490478-.9545288.18267823-.0817566.25088501-.13778686.28707886-.33206177.0227356-.12347412.04040527-.53775024.02313233-.681427-.10437012-.10198974-.16119385-.36453247-.21173096-.46948242-.1170044-.24273682-.13763428-.36831665-.25003052-.77667236-.01727295-.05477906-.05429077-.0581665-.08041382-.06869507-.03912353-.01641846-.07324219-.0425415-.10943603-.09185791-.10229492-.13864136-.03829956-.21704102-.13427735-.48040772-.1220703-.2996521-.17132568-.5954895-.0783081-.68399048.05267334-.0470581.0907898-.02905273.11987304-.01531982.00552369.002594.01077271.00506592.01568604.00689697.01757812.0065918.00808716-.0310669-.0065918-.08950805l-.00689697-.02764893c-.07363892-.3017273-.07785034-.90350342-.07785034-.90350342l.01135254-.00042724c-.03787232-.25158692-.02905274-.48336792.1376648-.83483887.16415405-.3590393.31106567-.27981567.3935852-.37210083.34811401-.3923645.66802978-.40246582.90838623-.50613403.522583-.22589112.96594238-.03948975 1.3239746.11102294l.03567506.01498414c.15322876.0661621.59985351.11715698.74887085.44711303.08712768.1921692.16329956.52044678.19277954.54995728.03115844.14160156.04800415.36999512.03198242.6203308-.0197754.30932618-.02020264.56512452-.09344483.86685182l-.00692749.02697753c-.01507568.05853272-.02496337.09674073-.006958.0897522.00588989-.00216675.01208496-.00549316.01867675-.00900268.02767945-.01477051.06240845-.0333252.11306763.01196289.09262085.08850097.07366943.39697265-.04840088.69662475-.09555053.2633667-.04293823.31182862-.10397339.41970825-.02609253.0472107-.04418945.11083985-.12332153.13949585-.02612305.0097046-.05810547.03286744-.0703125.08935547-.08502197.39697266-.10650635.4694519-.19573975.76739502-.03326416.1112671-.10943603.3510437-.21005249.44543457-.02105712.17068482.0286255.60855103.05725098.70715332.0664978.23092652.13006592.2760315.2597351.33206177.15951539.33377075.2824402.769104 1.5057068.96380615.0555725.0088501.11325073.01727295.1734314.02526856z"/>
</svg>
