<svg xmlns="http://www.w3.org/2000/svg" width="10.065" height="9.298" viewBox="0 0 10.065 9.298">
  <g>
    <ellipse cx="3.13" cy="8.49" fill="rgb(0,0,0)" rx=".808" ry=".809"/>
    <ellipse cx="7.774" cy="8.49" fill="rgb(0,0,0)" rx=".808" ry=".809"/>
    <path fill="rgb(0,0,0)" fill-rule="evenodd" d="M.80764234.80855397H.40382117C.1807969.80855397 0 .627553 0 .404277 0 .18100097.1807969 0 .40382117 0h.40382117c.66907282 0 1.21146351.54300292 1.21146351 1.21283096v.40427698h7.64199987c.22302427 0 .40382117.18100097.40382117.40427699 0 .0595128-.01312442.11829165-.03843622.17213994l-1.2416219 2.6414247c-.06326187.1345832-.19523237.22351941-.3435886.23154772l-6.42217432.3475364v.4479826c0 .22327602.1807969.40427699.40382118.40427699h6.05731756c.22302427 0 .40382117.18100097.40382117.40427698 0 .22327602-.1807969.404277-.40382117.404277H2.42292703c-.66907283 0-1.21146352-.54300292-1.21146352-1.21283097V1.21283096c0-.22327602-.1807969-.40427699-.40382117-.40427699z"/>
  </g>
</svg>
